<?xml version="1.0" standalone="no"?>
<!DOCTYPE svg PUBLIC "-//W3C//DTD SVG 20010904//EN"
 "http://www.w3.org/TR/2001/REC-SVG-20010904/DTD/svg10.dtd">
<svg version="1.0" xmlns="http://www.w3.org/2000/svg"
 width="4813.000000pt" height="3175.000000pt" viewBox="0 0 4813.000000 3175.000000"
 preserveAspectRatio="xMidYMid meet">

<g transform="translate(0.000000,3175.000000) scale(0.100000,-0.100000)"
fill="#000000" stroke="none">
<path d="M40930 31730 c-1364 -96 -2643 -517 -3774 -1242 -424 -272 -766 -549
-1122 -910 -198 -201 -295 -308 -435 -485 -650 -819 -1057 -1760 -1209 -2795
l-28 -193 -1 175 c-5 824 -249 1717 -666 2446 -327 570 -817 1117 -1380 1539
-934 701 -2146 1132 -3585 1274 -1317 130 -2548 46 -3740 -255 -1194 -301
-2205 -803 -3070 -1524 -415 -346 -837 -777 -1186 -1210 -1320 -1639 -2283
-3990 -2728 -6660 l-53 -315 -6 2425 c-4 1334 -7 3524 -7 4868 l0 2442 -4120
0 -4120 0 -5 -22 c-2 -13 -188 -1310 -412 -2882 -224 -1573 -409 -2853 -412
-2845 -2 8 -244 1303 -535 2879 l-531 2865 -3893 3 -3892 2 2 -10802 3 -10803
765 -3 765 -2 -135 -45 c-449 -151 -836 -447 -1084 -833 -68 -105 -169 -319
-211 -447 -44 -134 -80 -313 -94 -460 -7 -72 -11 -1061 -12 -2865 -1 -2479 1
-2765 15 -2858 65 -418 219 -782 453 -1072 87 -107 262 -274 376 -359 344
-255 771 -422 1302 -510 413 -69 995 -88 1375 -46 337 38 698 122 979 230 l93
35 397 0 398 0 109 -46 c774 -325 1689 -395 2524 -193 151 37 469 141 600 197
l95 40 2270 5 2270 5 155 -38 c589 -146 1120 -210 1725 -210 600 0 1147 66
1709 206 l178 44 4033 0 4032 0 104 -39 c299 -112 626 -191 984 -238 202 -26
798 -26 1000 0 321 42 612 110 877 204 l163 58 468 2 467 3 114 -34 c663 -201
1382 -239 2066 -110 154 29 380 85 483 120 l71 24 857 0 858 0 83 -31 c239
-88 496 -132 773 -133 272 0 483 35 737 123 l118 41 535 0 534 0 76 -30 c95
-38 273 -85 395 -105 305 -50 650 -18 938 86 l117 43 303 3 303 4 115 -66
c341 -196 737 -326 1159 -381 179 -24 561 -24 740 0 418 54 839 192 1148 374
l89 52 2384 0 2384 0 0 4570 0 4570 -1242 2 -1242 3 119 84 c860 605 1656
1368 2254 2161 780 1034 1252 2082 1510 3350 284 1399 224 2746 -174 3920
-172 508 -429 1029 -722 1465 -415 619 -978 1201 -1623 1679 -287 213 -635
435 -940 601 -80 44 -172 94 -205 113 l-60 33 230 -5 c127 -4 987 -14 1913
-23 1332 -13 1685 -14 1691 -4 8 12 30 256 53 576 22 298 16 1239 -10 1715
-40 737 -70 1106 -118 1480 -125 982 -373 1711 -797 2345 -291 435 -699 858
-1152 1196 -1015 756 -2413 1261 -3975 1435 -169 19 -925 28 -1130 14z
m-33966 -1187 c3 -10 15 -76 27 -148 12 -71 25 -132 28 -135 4 -3 20 -81 36
-175 16 -93 32 -172 35 -175 4 -3 17 -68 30 -145 13 -77 27 -142 30 -145 4 -3
20 -79 35 -170 16 -91 31 -167 35 -170 3 -3 19 -81 35 -175 16 -93 32 -172 36
-175 3 -3 19 -79 34 -170 16 -91 31 -167 35 -170 3 -3 19 -81 35 -175 16 -93
32 -172 36 -175 3 -3 17 -66 29 -140 13 -74 26 -137 30 -140 4 -3 19 -81 35
-175 16 -93 32 -172 36 -175 3 -3 19 -79 34 -170 16 -91 31 -167 35 -170 3 -3
19 -81 35 -175 16 -93 32 -172 36 -175 3 -3 19 -79 34 -170 16 -91 31 -167 35
-170 3 -3 17 -68 30 -145 13 -77 27 -142 30 -145 4 -3 19 -79 35 -170 15 -91
31 -167 34 -170 4 -3 20 -81 36 -175 16 -93 32 -172 35 -175 4 -3 19 -79 35
-170 15 -91 31 -167 34 -170 4 -3 20 -81 36 -175 16 -93 32 -172 35 -175 4 -3
19 -79 35 -170 15 -91 31 -167 35 -170 3 -3 17 -68 30 -145 13 -77 26 -142 30
-145 3 -3 19 -81 35 -175 16 -93 32 -172 36 -175 3 -3 19 -79 34 -170 16 -91
32 -167 35 -170 4 -3 19 -79 35 -170 15 -91 31 -167 34 -170 4 -3 20 -81 36
-175 16 -93 32 -172 35 -175 4 -3 17 -68 30 -145 13 -77 27 -142 30 -145 4 -3
20 -79 35 -170 16 -91 31 -167 35 -170 3 -3 19 -81 35 -175 16 -93 32 -172 36
-175 3 -3 19 -79 34 -170 16 -91 31 -167 35 -170 3 -3 19 -81 35 -175 16 -93
32 -172 36 -175 3 -3 17 -66 29 -140 12 -74 26 -137 29 -140 4 -3 20 -81 36
-175 16 -93 32 -172 35 -175 4 -3 19 -79 35 -170 15 -91 31 -167 34 -170 4 -3
20 -81 36 -175 16 -93 31 -172 35 -175 5 -4 40 -180 40 -203 0 -4 -704 -7
-1563 -7 l-1564 0 -18 103 c-10 56 -21 104 -25 107 -4 3 -19 75 -35 160 -15
85 -31 157 -34 160 -4 3 -20 77 -36 165 -16 88 -32 162 -36 165 -3 3 -19 75
-34 160 -16 85 -31 157 -35 160 -4 3 -20 75 -35 160 -15 85 -31 157 -35 160
-3 3 -17 64 -30 135 -13 72 -26 132 -30 135 -3 3 -19 77 -35 165 -16 88 -32
162 -36 165 -3 3 -19 75 -35 160 -15 85 -31 157 -34 160 -4 3 -20 75 -35 160
-15 85 -31 157 -35 160 -3 3 -19 77 -35 165 -16 88 -32 162 -36 165 -3 3 -19
75 -35 160 -15 85 -31 157 -34 160 -4 3 -17 64 -30 135 -13 72 -27 132 -30
135 -4 3 -20 75 -35 160 -15 85 -31 157 -35 160 -4 3 -19 75 -35 160 -15 85
-31 157 -34 160 -4 3 -20 77 -36 165 -16 88 -32 162 -35 165 -4 3 -20 75 -35
160 -15 85 -31 157 -35 160 -4 3 -17 64 -30 135 -13 72 -26 132 -30 135 -4 3
-13 39 -20 80 -15 94 -33 127 -26 50 3 -30 13 -320 23 -645 9 -324 19 -592 23
-595 4 -3 17 -349 30 -770 13 -421 26 -767 30 -770 4 -3 19 -417 35 -920 16
-503 32 -917 35 -920 4 -3 10 -126 14 -275 3 -148 9 -312 13 -362 l6 -93
-2037 0 -2036 0 0 5430 0 5430 2979 0 c2829 0 2980 -1 2985 -17z m21176 7
c1063 -36 1830 -204 2555 -561 99 -49 200 -101 225 -115 25 -15 61 -36 80 -47
19 -11 49 -28 65 -38 17 -10 47 -29 69 -41 21 -13 47 -28 56 -33 10 -6 26 -17
35 -25 9 -8 25 -19 35 -25 16 -9 52 -34 127 -87 40 -29 68 -52 211 -169 151
-124 368 -340 487 -484 22 -26 50 -59 63 -73 12 -14 32 -40 43 -59 11 -18 24
-33 27 -33 4 0 20 -20 35 -45 16 -25 32 -45 36 -45 3 0 17 -20 31 -45 14 -25
28 -45 31 -45 4 0 20 -21 35 -47 15 -26 35 -56 45 -66 9 -10 24 -36 34 -57 10
-22 22 -40 26 -40 5 0 21 -24 35 -52 15 -29 30 -55 34 -58 4 -3 20 -29 35 -59
15 -30 32 -60 39 -66 6 -7 20 -31 30 -54 11 -22 22 -41 26 -41 4 0 20 -29 35
-65 16 -36 31 -65 35 -65 4 0 18 -25 30 -56 13 -30 28 -61 34 -67 7 -7 24 -41
40 -77 15 -36 31 -67 35 -70 4 -3 20 -35 36 -72 15 -38 31 -68 34 -68 4 0 18
-29 31 -65 13 -36 27 -65 31 -65 4 0 19 -30 34 -67 15 -38 30 -70 34 -73 4 -3
20 -36 35 -75 15 -38 31 -72 35 -75 4 -3 20 -39 36 -80 16 -41 31 -77 35 -80
4 -3 19 -41 35 -85 16 -44 32 -82 35 -85 4 -3 20 -43 35 -90 15 -47 31 -87 35
-90 4 -3 17 -39 29 -80 13 -41 26 -77 30 -80 4 -3 20 -52 36 -110 16 -58 31
-107 35 -110 4 -3 20 -57 35 -120 15 -63 31 -117 35 -120 4 -3 20 -63 35 -135
16 -71 32 -132 36 -135 3 -3 19 -79 35 -170 15 -91 31 -167 35 -170 4 -3 17
-84 30 -180 13 -96 26 -177 30 -180 14 -11 48 -433 56 -697 3 -123 10 -223 15
-223 4 0 8 -58 8 -130 0 -80 -4 -130 -10 -130 -6 0 -10 -42 -10 -105 l0 -105
-2094 0 -2093 0 -7 38 c-3 20 -6 56 -6 80 0 23 -4 42 -9 42 -4 0 -11 30 -15
67 -9 88 -46 276 -55 283 -4 3 -20 53 -35 113 -16 59 -32 107 -36 107 -4 0
-15 28 -25 61 -11 34 -24 67 -30 73 -6 6 -24 43 -40 81 -16 39 -32 72 -36 75
-3 3 -19 30 -34 60 -15 30 -31 57 -35 60 -4 3 -20 27 -36 55 -16 27 -36 57
-46 67 -9 9 -24 31 -33 47 -8 17 -19 31 -24 31 -5 0 -20 17 -33 38 -57 85
-280 292 -428 396 -432 305 -992 467 -1615 467 -433 0 -730 -68 -1052 -241
-47 -25 -70 -39 -110 -67 -17 -13 -36 -23 -41 -23 -5 0 -17 -9 -27 -20 -10
-11 -22 -20 -28 -20 -10 0 -16 -5 -166 -127 -127 -104 -270 -247 -386 -388
-22 -26 -50 -59 -63 -73 -12 -14 -32 -41 -44 -60 -11 -19 -31 -45 -44 -59 -13
-14 -26 -34 -29 -44 -4 -11 -10 -19 -15 -19 -5 0 -19 -18 -29 -39 -11 -21 -26
-45 -34 -52 -7 -8 -26 -36 -42 -64 -16 -27 -32 -52 -36 -55 -3 -3 -19 -30 -34
-60 -15 -30 -31 -57 -35 -60 -4 -3 -20 -30 -35 -60 -15 -30 -30 -57 -34 -60
-3 -3 -17 -30 -31 -60 -14 -30 -28 -57 -32 -60 -3 -3 -19 -34 -34 -70 -16 -36
-31 -67 -35 -70 -4 -3 -20 -36 -35 -75 -15 -38 -31 -72 -35 -75 -4 -3 -19 -41
-35 -85 -15 -44 -31 -81 -35 -83 -4 -2 -20 -40 -35 -85 -15 -45 -30 -84 -34
-87 -4 -3 -18 -39 -30 -80 -12 -41 -26 -77 -30 -80 -4 -3 -20 -50 -36 -105
-15 -55 -31 -102 -35 -105 -4 -3 -19 -52 -34 -110 -16 -58 -31 -107 -35 -110
-4 -3 -20 -61 -36 -130 -15 -69 -31 -127 -35 -130 -4 -3 -19 -66 -35 -140 -15
-74 -31 -137 -35 -140 -3 -3 -19 -75 -35 -160 -15 -85 -31 -157 -35 -160 -3
-3 -17 -75 -30 -160 -13 -85 -26 -157 -30 -160 -7 -5 -59 -388 -59 -432 0 -16
-4 -28 -8 -28 -8 0 -46 -356 -59 -552 -3 -54 -9 -98 -13 -98 -9 0 -40 -589
-50 -952 0 -5 -944 -8 -2099 -8 l-2098 0 -6 43 c-3 23 -11 128 -18 232 -7 105
-16 192 -20 195 -12 9 -29 530 -29 915 0 389 17 906 30 915 4 3 10 55 13 115
10 171 49 569 56 575 4 3 19 109 35 235 15 127 31 232 35 235 4 3 18 75 30
160 13 85 27 157 30 160 4 3 20 77 35 165 16 88 32 162 35 165 4 3 20 68 35
145 16 77 31 142 35 145 4 3 20 64 36 135 15 72 31 132 35 135 4 3 20 57 35
120 15 63 31 117 35 120 3 3 17 46 30 95 12 50 26 92 30 95 3 3 19 50 34 105
16 55 32 102 35 105 4 3 20 48 35 100 16 52 31 97 35 100 3 3 19 46 35 95 16
50 32 92 36 95 4 3 19 44 35 93 15 48 30 87 34 87 4 0 18 33 30 73 13 39 27
74 31 77 4 3 20 39 34 80 15 41 31 77 35 80 4 3 20 39 35 80 15 41 31 77 34
80 4 3 21 39 36 80 16 41 32 77 36 80 4 3 20 39 36 80 15 41 31 77 35 80 4 3
20 37 35 75 15 39 31 72 35 75 4 3 17 30 29 60 12 30 25 57 29 60 4 3 20 37
35 75 15 39 31 72 35 75 4 3 20 37 36 75 16 39 32 72 36 75 4 3 19 32 33 65
15 32 30 62 35 65 4 3 20 35 36 73 15 37 31 67 35 67 4 0 18 25 30 55 12 30
26 55 30 55 4 0 20 28 35 63 15 34 31 64 35 67 4 3 20 29 35 59 15 30 32 60
39 66 6 6 22 35 35 63 14 29 28 52 33 52 4 0 19 23 34 52 14 28 33 58 40 66 8
8 22 28 31 45 8 17 22 37 30 45 7 8 23 32 34 53 10 21 23 39 27 39 4 0 20 23
35 50 16 28 31 50 35 50 4 0 20 23 37 50 16 28 32 50 36 50 4 0 19 20 33 45
15 25 30 45 34 45 4 0 16 14 26 31 10 16 30 43 44 59 15 15 43 47 62 70 19 23
46 55 60 71 14 15 48 54 75 85 148 167 443 446 595 562 30 23 89 67 130 99 70
54 100 76 155 113 13 8 63 42 111 75 49 33 93 62 99 64 5 2 24 15 41 28 17 12
35 23 39 23 5 0 16 6 24 14 9 7 41 27 71 43 30 17 73 40 95 53 362 207 849
416 1270 545 50 15 117 37 150 47 95 31 473 123 665 162 755 153 1608 210
2630 176z m-11260 -85 c0 -14 4 -25 8 -25 4 0 21 -719 37 -1597 16 -879 32
-1600 35 -1603 4 -3 19 -720 35 -1595 16 -874 31 -1592 35 -1595 3 -3 19 -723
35 -1600 16 -877 32 -1597 36 -1600 3 -3 10 -241 14 -530 3 -289 9 -533 11
-542 5 -17 -83 -18 -1754 -18 l-1759 0 -6 113 c-3 61 -14 308 -23 547 -10 239
-21 437 -24 440 -4 3 -19 322 -35 710 -16 388 -31 707 -35 710 -4 3 -19 322
-35 710 -16 388 -31 707 -35 710 -3 3 -19 318 -35 700 -15 382 -30 697 -32
700 -12 13 -21 -39 -43 -228 -12 -114 -26 -209 -30 -212 -4 -3 -17 -99 -30
-215 -13 -115 -26 -212 -30 -215 -3 -3 -19 -117 -35 -255 -15 -137 -31 -252
-35 -255 -3 -3 -19 -117 -35 -255 -15 -137 -31 -252 -35 -255 -3 -3 -19 -117
-35 -255 -15 -137 -31 -252 -35 -255 -3 -3 -19 -120 -35 -260 -16 -140 -32
-257 -35 -260 -4 -3 -20 -117 -35 -255 -16 -137 -32 -252 -35 -255 -4 -3 -17
-97 -30 -210 -13 -113 -26 -207 -30 -210 -3 -3 -19 -117 -35 -255 -15 -137
-31 -252 -35 -255 -3 -3 -19 -117 -35 -255 -15 -137 -31 -252 -35 -255 -3 -3
-16 -97 -29 -210 -13 -113 -25 -217 -28 -232 l-5 -28 -1521 0 -1520 0 6 38 c3
20 11 91 18 157 7 66 15 122 19 125 4 3 17 100 30 215 13 116 26 212 30 215 4
3 19 120 35 260 15 140 31 257 35 260 3 3 19 120 35 260 15 140 31 257 35 260
3 3 19 122 35 265 16 143 32 262 35 265 4 3 20 120 35 260 16 140 32 257 35
260 4 3 17 100 30 215 13 116 26 212 30 215 3 3 19 120 35 260 15 140 31 257
35 260 3 3 19 122 35 265 16 143 32 262 35 265 4 3 20 120 35 260 16 140 32
257 35 260 4 3 20 120 35 260 16 140 32 257 35 260 4 3 17 100 30 215 13 116
26 212 30 215 3 3 19 120 35 260 15 140 31 257 35 260 3 3 19 122 35 265 16
143 32 262 35 265 4 3 20 120 35 260 16 140 32 257 35 260 4 3 20 120 35 260
16 140 31 257 35 260 4 3 19 120 35 260 16 140 31 257 35 260 4 3 17 102 30
220 13 118 27 217 30 220 4 3 20 120 35 260 16 140 32 257 35 260 4 3 20 120
35 260 16 140 31 257 35 260 4 3 19 120 35 260 16 140 32 257 37 258 4 2 8 13
8 25 0 12 7 86 17 165 l16 142 2934 0 2933 0 0 -25z m25325 6 c651 -63 1166
-171 1625 -341 47 -17 96 -35 110 -39 97 -31 447 -194 635 -296 102 -55 107
-58 142 -82 17 -13 34 -23 37 -23 3 0 35 -20 72 -45 36 -25 69 -45 73 -45 4 0
16 -9 26 -20 10 -11 23 -20 30 -20 7 0 20 -9 30 -20 10 -11 23 -20 30 -20 6 0
24 -13 40 -30 16 -16 33 -30 38 -30 5 0 35 -22 67 -50 32 -27 61 -50 65 -50
10 0 119 -94 203 -175 158 -150 255 -251 347 -360 22 -26 50 -59 63 -73 12
-14 32 -40 43 -59 11 -18 24 -33 28 -33 4 0 17 -17 28 -38 12 -20 33 -51 47
-67 14 -17 26 -33 26 -37 0 -5 8 -16 18 -26 9 -9 30 -40 46 -67 16 -28 32 -52
36 -55 4 -3 19 -29 34 -57 14 -29 30 -53 35 -53 4 0 20 -29 36 -65 15 -36 31
-65 35 -65 4 0 20 -28 35 -62 15 -35 31 -65 35 -68 4 -3 18 -30 31 -60 12 -30
26 -57 31 -60 4 -3 19 -37 33 -75 15 -39 30 -72 34 -75 4 -3 20 -41 36 -85 16
-44 32 -82 35 -85 4 -3 20 -43 35 -90 15 -47 31 -87 35 -90 4 -3 20 -48 36
-100 15 -52 31 -97 35 -100 4 -3 17 -41 29 -85 12 -44 26 -82 30 -85 4 -3 19
-52 35 -110 15 -58 30 -107 34 -110 4 -3 20 -54 36 -115 16 -60 32 -112 36
-115 4 -3 19 -61 35 -130 15 -69 32 -127 36 -130 4 -3 19 -73 35 -155 15 -83
30 -152 34 -155 7 -6 59 -345 59 -389 0 -16 4 -31 9 -33 5 -1 17 -93 27 -203
31 -339 24 -1225 -12 -1407 l-6 -28 -2004 0 -2005 0 8 78 c19 187 -1 662 -28
662 -5 0 -9 10 -9 21 0 32 -51 253 -59 259 -4 3 -20 47 -36 98 -15 50 -31 92
-35 92 -4 0 -18 27 -30 61 -13 33 -28 66 -34 72 -6 7 -24 40 -40 75 -16 34
-33 62 -37 62 -3 0 -12 13 -19 29 -6 16 -19 37 -29 48 -10 10 -30 40 -45 66
-15 26 -31 47 -35 47 -4 0 -20 22 -36 50 -17 27 -33 50 -36 50 -4 0 -18 18
-32 39 -14 22 -36 50 -49 64 -13 14 -54 60 -93 103 -38 43 -90 96 -115 118
-24 23 -58 55 -75 73 -29 30 -138 116 -176 139 -11 6 -27 18 -37 27 -10 10
-22 17 -27 17 -5 0 -16 6 -24 14 -52 46 -233 131 -366 171 -167 50 -268 66
-430 67 -313 0 -573 -78 -883 -267 -16 -10 -65 -43 -122 -82 -75 -52 -215
-183 -295 -278 -22 -26 -47 -55 -56 -65 -10 -10 -30 -40 -45 -66 -16 -27 -34
-54 -40 -61 -6 -7 -22 -37 -35 -68 -12 -30 -26 -55 -29 -55 -4 0 -20 -39 -36
-87 -16 -49 -32 -90 -35 -93 -10 -7 -49 -194 -49 -230 0 -16 -4 -30 -10 -30
-6 0 -10 -65 -10 -175 0 -110 4 -175 10 -175 6 0 10 -13 10 -29 0 -39 38 -224
48 -231 4 -3 19 -41 32 -84 13 -43 29 -84 35 -90 6 -6 24 -41 39 -78 16 -38
32 -68 36 -68 4 0 19 -22 34 -50 15 -27 31 -50 35 -50 4 0 13 -11 19 -24 6
-13 25 -41 44 -62 59 -68 251 -256 284 -278 17 -11 69 -47 114 -78 45 -32 84
-58 88 -58 3 0 13 -6 21 -14 21 -19 194 -108 280 -145 45 -19 110 -35 183 -46
724 -104 1516 -315 2153 -575 281 -114 412 -174 680 -310 219 -112 275 -141
355 -187 78 -45 196 -114 210 -123 151 -95 185 -117 201 -126 10 -6 27 -18 37
-27 10 -10 22 -17 25 -17 13 0 312 -213 376 -267 21 -18 42 -33 46 -33 5 0 34
-22 64 -48 31 -26 67 -55 81 -64 83 -54 388 -328 599 -539 143 -144 171 -173
301 -319 36 -40 74 -83 86 -95 11 -12 31 -35 43 -51 35 -46 84 -105 109 -132
12 -14 32 -40 43 -59 11 -18 24 -33 27 -33 4 0 20 -21 36 -47 17 -25 40 -57
53 -71 12 -13 25 -33 28 -43 4 -11 10 -19 15 -19 4 0 21 -21 36 -47 15 -27 33
-52 39 -58 7 -5 23 -28 36 -50 13 -22 31 -48 40 -58 9 -10 24 -36 34 -57 10
-22 22 -40 26 -40 5 0 21 -24 35 -52 15 -29 30 -55 34 -58 4 -3 18 -25 30 -50
12 -25 26 -47 30 -50 4 -3 20 -30 35 -60 15 -30 31 -57 35 -60 4 -3 17 -24 29
-47 l21 -43 -442 0 c-244 0 -2317 7 -4607 16 l-4163 15 -57 59 c-31 32 -81 86
-111 120 -30 34 -73 81 -95 104 -22 23 -53 59 -68 79 -16 21 -38 48 -50 61
-30 32 -64 73 -95 115 -15 20 -32 41 -38 46 -6 6 -21 24 -33 42 -22 32 -41 56
-93 115 -14 17 -34 46 -44 64 -10 19 -22 34 -26 34 -4 0 -19 20 -34 45 -14 25
-29 45 -33 45 -4 0 -17 18 -30 40 -12 22 -28 45 -34 52 -7 7 -23 31 -36 53
-13 22 -29 45 -35 50 -7 6 -25 33 -41 60 -15 28 -31 52 -35 55 -3 3 -17 23
-30 45 -13 22 -27 42 -31 45 -3 3 -19 29 -34 59 -14 29 -35 62 -45 73 -9 10
-25 37 -35 58 -10 22 -21 40 -25 40 -4 0 -19 29 -35 65 -15 36 -31 65 -35 65
-4 0 -21 29 -36 65 -16 36 -31 65 -35 65 -4 0 -17 24 -29 53 -12 28 -26 54
-30 57 -4 3 -20 34 -35 70 -15 36 -30 67 -34 70 -4 3 -20 37 -35 75 -15 39
-31 72 -35 75 -4 3 -20 39 -35 80 -15 41 -31 77 -35 80 -4 3 -21 43 -36 90
-15 47 -31 87 -35 90 -4 3 -17 37 -30 75 -13 39 -26 72 -30 75 -3 3 -19 50
-35 105 -16 55 -32 102 -36 105 -3 3 -19 55 -35 115 -15 61 -31 112 -35 115
-4 3 -20 64 -35 135 -16 72 -31 132 -35 135 -4 3 -19 77 -35 165 -15 88 -31
162 -35 165 -6 5 -44 263 -56 380 -3 36 -9 67 -13 70 -13 9 -41 375 -47 613
-3 125 -10 227 -14 227 -5 0 -9 32 -9 70 0 39 4 70 8 70 5 0 12 100 15 223 6
223 34 588 46 597 3 3 19 95 35 205 15 110 31 202 35 205 4 3 20 70 35 150 16
80 32 147 36 150 4 3 19 57 35 120 15 63 30 117 34 120 4 3 20 51 35 107 16
56 31 103 35 105 3 2 19 44 35 93 16 50 32 92 35 95 4 3 18 34 31 70 13 36 27
67 30 70 4 3 19 37 34 75 15 39 31 72 35 75 4 3 20 37 36 75 16 39 32 72 36
75 4 3 19 32 33 65 15 32 31 62 36 65 5 3 21 33 36 65 14 33 29 62 34 65 4 3
17 24 29 48 12 23 25 42 29 42 5 0 21 27 37 60 16 33 32 60 37 60 4 0 19 23
33 50 14 28 29 50 33 50 4 0 20 23 35 50 16 28 31 50 35 50 4 0 20 23 37 50
16 28 32 50 36 50 4 0 16 15 26 33 20 32 48 68 89 113 12 12 32 37 45 56 12
18 32 42 43 54 12 11 41 44 66 73 91 108 236 257 402 412 132 125 413 369 424
369 4 0 31 20 60 45 28 25 55 45 59 45 4 0 25 15 45 33 21 17 54 43 75 57 20
14 49 35 65 48 15 12 32 22 37 22 6 0 18 9 28 20 10 11 22 20 26 20 4 0 36 19
71 42 35 24 71 47 80 53 10 5 55 32 100 60 146 87 228 132 393 213 227 113
309 150 485 217 52 20 106 41 120 47 123 50 504 164 705 212 242 57 655 116
955 136 91 6 183 12 205 14 83 8 915 -3 1020 -13z m-8585 -10036 l0 -835
-3265 0 -3265 0 0 835 0 835 3265 0 3265 0 0 -835z m-28616 -1297 c3 -18 10
-595 17 -1283 7 -687 15 -1252 19 -1255 3 -3 19 -1143 35 -2535 16 -1391 32
-2532 35 -2535 4 -3 10 -269 13 -592 l6 -588 -2065 0 -2064 0 0 4410 0 4410
2000 0 1999 0 5 -32z m4175 -48 c8 -41 17 -77 21 -80 4 -3 19 -70 35 -150 16
-80 31 -147 35 -150 4 -3 18 -60 30 -127 13 -68 28 -123 32 -123 4 0 8 -7 8
-17 0 -33 12 -3 32 83 11 49 24 91 27 94 4 3 20 61 35 130 16 69 32 127 36
130 4 3 20 62 36 133 15 70 31 127 36 127 4 0 8 7 8 15 0 13 172 15 1485 15
1408 0 1485 -1 1485 -17 0 -41 -44 -388 -50 -393 -3 -3 -19 -115 -35 -250 -15
-135 -31 -247 -35 -250 -3 -3 -19 -115 -35 -250 -15 -135 -31 -247 -35 -250
-3 -3 -19 -115 -35 -250 -15 -135 -31 -247 -35 -250 -3 -3 -19 -115 -35 -250
-15 -135 -31 -247 -35 -250 -3 -3 -17 -97 -30 -210 -13 -113 -26 -207 -30
-210 -4 -3 -19 -115 -35 -250 -16 -135 -31 -247 -35 -250 -4 -3 -19 -115 -35
-250 -16 -135 -31 -247 -35 -250 -4 -3 -19 -115 -35 -250 -16 -135 -31 -247
-35 -250 -4 -3 -19 -115 -35 -250 -16 -135 -31 -247 -35 -250 -4 -3 -17 -97
-30 -210 -13 -113 -27 -207 -30 -210 -4 -3 -20 -115 -35 -250 -16 -135 -32
-247 -35 -250 -4 -3 -20 -115 -35 -250 -16 -135 -32 -247 -35 -250 -4 -3 -20
-115 -35 -250 -16 -135 -32 -247 -35 -250 -4 -3 -20 -115 -35 -250 -16 -135
-32 -247 -35 -250 -4 -3 -20 -115 -35 -250 -16 -135 -32 -247 -35 -250 -4 -3
-17 -95 -30 -205 -13 -110 -26 -202 -30 -205 -3 -3 -19 -116 -35 -252 -16
-137 -32 -248 -36 -248 -3 0 -10 -36 -13 -80 l-7 -80 -1615 0 c-1298 0 -1618
3 -1628 13 -7 7 -26 82 -41 167 -16 85 -32 157 -36 160 -3 3 -19 73 -34 155
-15 83 -31 152 -35 155 -3 3 -19 75 -34 160 -16 85 -32 157 -36 160 -4 3 -17
64 -30 135 -13 72 -27 132 -30 135 -4 3 -20 73 -35 155 -15 83 -31 152 -34
155 -4 3 -20 75 -35 160 -16 85 -32 157 -35 160 -4 3 -20 75 -35 160 -16 85
-32 157 -36 160 -4 3 -20 75 -35 160 -15 85 -31 157 -35 160 -4 3 -17 61 -30
130 -12 69 -26 127 -29 130 -4 3 -20 75 -35 160 -16 85 -32 157 -35 160 -4 3
-20 75 -36 160 -15 85 -31 157 -35 160 -4 3 -20 75 -35 160 -15 85 -31 157
-35 160 -4 3 -20 75 -35 160 -16 85 -32 157 -36 160 -3 3 -16 61 -29 130 -13
69 -26 127 -29 130 -4 3 -20 75 -36 160 -15 85 -31 157 -35 160 -4 3 -20 75
-35 160 -15 85 -31 157 -35 160 -4 3 -20 75 -36 160 -15 85 -31 157 -35 160
-3 3 -19 75 -35 160 -15 85 -31 157 -35 160 -3 3 -17 61 -29 130 -13 69 -26
127 -30 130 -4 3 -20 75 -35 160 -15 85 -31 157 -35 160 -4 3 -20 75 -36 160
-15 85 -31 157 -34 160 -4 3 -20 73 -35 155 -15 83 -31 152 -34 155 -4 3 -20
75 -35 160 -16 85 -32 157 -35 160 -4 3 -20 75 -35 160 -16 85 -32 157 -36
160 -4 3 -17 64 -30 135 -13 72 -27 132 -30 135 -4 3 -20 73 -35 155 -15 83
-31 152 -34 155 -4 3 -20 75 -35 160 -16 85 -32 157 -35 160 -4 3 -20 75 -36
160 -15 85 -32 157 -35 160 -7 5 -30 121 -30 148 0 9 367 11 1532 10 l1533 -3
14 -75z m7901 60 c22 -11 48 -32 57 -47 17 -26 18 -131 21 -1932 1 -1048 6
-1907 10 -1910 4 -4 18 -46 31 -96 12 -49 26 -92 30 -95 4 -3 20 -41 36 -85
16 -44 32 -82 36 -85 4 -3 19 -31 33 -63 14 -32 32 -65 41 -73 9 -9 25 -34 36
-55 10 -21 23 -39 27 -39 4 0 15 -13 25 -29 9 -15 36 -47 59 -70 l43 -41 1428
0 c1139 0 1428 3 1424 13 -2 6 -12 39 -22 72 -9 33 -20 62 -24 65 -4 3 -20 50
-35 105 -16 55 -32 102 -35 105 -4 3 -20 55 -36 115 -16 61 -32 112 -36 115
-4 3 -20 55 -35 115 -15 61 -30 112 -34 115 -4 3 -20 59 -35 125 -16 66 -32
122 -35 125 -4 3 -18 52 -30 110 -12 58 -26 107 -30 110 -4 3 -20 68 -35 145
-16 77 -32 142 -35 145 -4 3 -20 73 -35 155 -16 83 -32 152 -35 155 -4 3 -20
84 -35 180 -16 96 -32 177 -36 180 -4 3 -19 95 -35 205 -15 110 -31 202 -34
205 -4 3 -17 95 -30 205 -13 110 -27 202 -30 205 -7 5 -45 401 -57 580 -3 58
-9 107 -13 110 -8 5 -26 345 -37 673 l-6 207 2146 0 2147 0 -6 -82 c-11 -153
28 -878 48 -878 4 0 8 -14 8 -30 0 -48 52 -405 60 -410 3 -3 17 -61 30 -130
12 -69 26 -127 30 -130 4 -3 19 -60 35 -127 16 -68 32 -123 37 -123 4 0 8 -6
8 -12 0 -21 53 -203 60 -208 4 -3 20 -43 35 -90 15 -47 31 -87 35 -90 3 -3 19
-41 34 -85 16 -44 31 -82 35 -85 4 -3 20 -36 36 -75 16 -38 32 -72 36 -75 4
-3 17 -28 29 -55 12 -27 25 -52 30 -55 5 -3 21 -33 36 -65 14 -33 29 -62 33
-65 4 -3 21 -27 36 -55 16 -27 32 -52 35 -55 4 -3 20 -27 35 -55 16 -27 34
-54 41 -60 6 -5 21 -27 33 -47 13 -21 26 -38 31 -38 5 0 11 -8 15 -19 3 -10
16 -30 28 -43 13 -14 33 -38 46 -54 146 -188 490 -509 652 -609 9 -5 43 -28
75 -50 33 -21 68 -44 79 -51 11 -6 54 -31 95 -56 174 -104 379 -195 590 -263
836 -268 1765 -110 2634 448 145 92 304 206 325 230 7 10 18 17 23 17 17 0
339 280 456 396 l112 112 0 896 c0 709 -3 897 -12 901 -7 2 -470 8 -1028 14
-558 6 -1183 14 -1387 18 l-373 6 0 633 0 634 398 0 c218 0 1551 -7 2962 -15
1411 -8 2685 -15 2833 -15 l267 0 0 -1382 c0 -761 3 -1765 7 -2232 l6 -849
1141 7 c628 4 2355 16 3838 26 l2697 18 68 58 c118 101 257 236 333 324 25 29
57 65 72 81 15 16 35 43 43 59 9 17 19 30 23 30 4 0 21 25 37 55 17 30 33 55
36 55 4 0 19 28 34 63 15 34 31 64 35 67 10 7 60 166 60 190 0 10 6 20 13 22
9 4 12 46 12 168 0 122 -3 164 -12 167 -7 3 -13 13 -13 23 0 22 -49 162 -59
170 -4 3 -19 26 -34 53 -15 26 -31 47 -35 47 -4 0 -15 13 -25 29 -9 16 -36 49
-59 73 -46 48 -234 210 -282 243 -16 11 -41 29 -56 40 -74 54 -122 85 -129 85
-4 0 -16 9 -26 20 -10 11 -22 20 -26 20 -4 0 -37 20 -73 45 -37 25 -69 45 -72
45 -3 0 -20 10 -37 23 -35 25 -57 38 -104 62 -18 9 -37 23 -44 31 -6 8 -15 14
-19 14 -4 0 -47 25 -96 55 -49 30 -96 58 -104 62 -8 3 -28 15 -45 27 -16 12
-50 32 -75 45 -25 13 -52 30 -61 37 -8 8 -19 14 -24 14 -4 0 -22 10 -39 23
-17 13 -38 26 -46 30 -8 4 -33 18 -55 32 -22 13 -56 34 -75 45 -40 23 -52 31
-133 83 -32 20 -61 37 -64 37 -3 0 -21 11 -39 25 -18 14 -35 25 -38 25 -2 0
-32 18 -65 40 -33 22 -62 40 -65 40 -3 0 -35 20 -72 45 -36 25 -67 45 -69 45
-3 0 -47 29 -99 64 -51 35 -98 65 -102 67 -5 2 -49 31 -97 64 -49 33 -97 65
-108 71 -10 6 -27 18 -37 27 -10 10 -21 17 -25 17 -5 0 -139 91 -285 194 -24
17 -52 36 -63 42 -10 6 -28 19 -39 29 -11 10 -28 23 -39 29 -17 10 -47 31
-128 88 -17 13 -77 57 -133 98 -56 41 -110 80 -121 86 -11 6 -31 21 -44 34
-13 13 -33 28 -43 34 -11 6 -54 38 -97 71 -43 33 -88 67 -100 75 -12 8 -46 34
-76 57 -30 24 -84 66 -122 95 -37 29 -82 65 -100 81 l-32 28 115 -6 c525 -24
1800 -35 5245 -46 2046 -6 3723 -13 3727 -15 3 -2 9 -23 13 -47 4 -23 11 -44
15 -47 8 -5 60 -276 60 -310 0 -10 4 -20 9 -22 9 -3 61 -352 61 -407 0 -16 4
-31 9 -33 5 -1 17 -100 27 -218 27 -311 27 -1008 0 -1307 -10 -117 -23 -213
-28 -213 -4 0 -8 -11 -8 -25 0 -44 -52 -410 -59 -415 -4 -3 -20 -77 -35 -165
-16 -88 -31 -162 -35 -165 -4 -3 -20 -66 -35 -140 -16 -74 -31 -137 -35 -140
-4 -3 -20 -59 -36 -125 -15 -66 -31 -122 -35 -125 -4 -3 -20 -52 -35 -110 -16
-58 -31 -107 -35 -110 -4 -3 -18 -39 -30 -80 -12 -41 -25 -77 -29 -80 -3 -3
-19 -45 -35 -95 -16 -49 -32 -92 -36 -95 -4 -3 -19 -42 -34 -87 -15 -45 -31
-83 -35 -85 -4 -2 -20 -39 -36 -83 -15 -44 -32 -82 -36 -85 -4 -3 -19 -36 -34
-75 -14 -38 -29 -72 -33 -75 -5 -3 -19 -30 -31 -60 -13 -30 -27 -57 -30 -60
-4 -3 -20 -35 -36 -72 -15 -38 -31 -68 -34 -68 -4 0 -20 -30 -36 -67 -16 -38
-32 -70 -36 -73 -3 -3 -19 -30 -34 -60 -15 -30 -31 -57 -35 -60 -5 -3 -20 -32
-34 -65 -15 -32 -30 -62 -35 -65 -5 -3 -15 -19 -24 -37 -9 -17 -23 -37 -31
-45 -7 -8 -26 -39 -41 -69 -15 -30 -31 -56 -35 -59 -4 -3 -20 -27 -35 -55 -16
-27 -32 -52 -35 -55 -4 -3 -20 -27 -35 -55 -16 -27 -33 -52 -37 -53 -5 -2 -17
-21 -28 -42 -11 -21 -26 -44 -33 -52 -8 -7 -27 -33 -42 -58 -15 -25 -34 -51
-42 -58 -7 -8 -20 -27 -28 -43 -9 -16 -19 -29 -23 -29 -4 0 -20 -23 -37 -50
-16 -28 -32 -50 -36 -50 -4 0 -19 -20 -33 -45 -15 -25 -30 -45 -34 -45 -4 0
-16 -14 -26 -31 -10 -18 -26 -39 -35 -48 -9 -9 -27 -32 -41 -51 -22 -31 -44
-58 -90 -109 -8 -9 -28 -33 -43 -54 -16 -21 -38 -48 -50 -61 -12 -13 -35 -39
-52 -59 -16 -19 -50 -58 -75 -87 -25 -29 -67 -77 -95 -106 -27 -29 -88 -94
-135 -145 -164 -177 -500 -502 -650 -630 -41 -35 -100 -88 -130 -118 -30 -30
-71 -64 -90 -76 -19 -12 -86 -66 -147 -119 -62 -53 -116 -96 -119 -96 -4 0
-35 -25 -69 -55 -35 -30 -66 -55 -70 -55 -6 0 -72 -50 -151 -114 -18 -15 -36
-26 -41 -26 -5 0 -22 -14 -38 -30 -16 -17 -34 -30 -40 -30 -6 0 -22 -11 -35
-25 -13 -14 -28 -25 -34 -25 -5 0 -23 -12 -39 -27 l-28 -28 -4519 -3 -4519 -2
-34 30 c-19 16 -39 30 -44 30 -5 0 -25 17 -44 38 -19 20 -53 53 -74 73 -51 47
-127 135 -139 160 -5 10 -13 19 -17 19 -5 0 -21 21 -36 48 -15 26 -35 55 -44
65 -9 10 -24 38 -34 63 -9 24 -20 44 -25 44 -4 0 -21 35 -36 78 -15 42 -31 79
-36 82 -10 7 -58 207 -58 243 0 15 -4 27 -10 27 -5 0 -10 18 -10 39 0 22 -3
47 -6 55 -7 18 -22 5 -73 -60 -38 -49 -85 -107 -101 -124 -9 -8 -29 -33 -45
-55 -17 -21 -39 -48 -50 -60 -11 -11 -38 -43 -60 -69 -22 -27 -51 -61 -65 -76
-141 -155 -175 -192 -180 -199 -3 -5 -33 -29 -67 -54 -253 -187 -510 -285
-926 -355 l-162 -27 -7945 0 -7945 0 -105 23 c-201 45 -405 110 -580 184 -124
52 -352 171 -390 202 -8 7 -22 16 -30 20 -16 7 -42 23 -106 68 -21 15 -50 36
-64 45 -87 60 -332 294 -395 378 -16 22 -37 47 -47 57 -10 10 -18 22 -18 27 0
4 -10 19 -23 33 -13 14 -36 47 -52 74 -15 27 -31 51 -35 54 -4 3 -18 25 -30
50 -12 25 -26 47 -31 50 -4 3 -18 28 -30 55 -20 45 -23 71 -27 240 -2 105 -7
192 -11 195 -4 3 -20 473 -36 1045 -16 572 -32 1042 -35 1045 -4 3 -19 471
-35 1040 -16 569 -31 1037 -35 1040 -3 3 -19 471 -35 1040 -16 569 -32 1037
-35 1040 -4 3 -10 145 -14 315 -4 171 -9 352 -13 403 l-6 92 1727 0 c1711 0
1727 0 1766 -20z m-13720 -10015 c142 -20 326 -63 445 -105 77 -28 287 -125
350 -163 147 -88 236 -157 344 -266 113 -114 157 -164 177 -203 8 -15 18 -28
22 -28 5 0 21 -27 37 -60 16 -33 32 -60 35 -60 4 0 20 -28 35 -62 15 -35 31
-65 35 -68 4 -3 20 -45 36 -95 16 -49 32 -92 35 -95 27 -21 30 -139 19 -996
-5 -483 -10 -948 -10 -1031 l0 -153 -835 0 -835 0 0 1018 c0 695 -4 1029 -11
1056 -14 49 -69 101 -126 117 -89 24 -194 -15 -227 -86 -17 -35 -17 -147 -7
-2123 16 -3135 16 -3098 50 -3122 4 -3 17 -19 29 -37 79 -113 263 -117 361 -6
65 73 62 19 61 977 l0 874 352 6 c194 3 558 8 809 11 l457 5 7 -943 c7 -865 6
-951 -10 -1052 -9 -61 -20 -112 -24 -115 -3 -3 -17 -41 -29 -85 -13 -44 -27
-82 -31 -85 -3 -3 -19 -35 -35 -72 -16 -38 -31 -68 -35 -68 -4 0 -18 -23 -31
-51 -13 -27 -29 -53 -35 -57 -5 -4 -22 -26 -37 -49 -15 -22 -37 -52 -50 -65
-13 -13 -33 -35 -45 -49 -40 -46 -131 -129 -140 -129 -6 0 -18 -10 -29 -21
-16 -19 -48 -42 -112 -84 -190 -123 -449 -230 -663 -274 -286 -59 -609 -52
-884 19 -186 48 -397 135 -560 230 -22 13 -49 28 -60 34 -32 18 -174 115 -253
173 -39 29 -116 97 -170 151 -109 111 -134 140 -170 197 -14 22 -30 44 -36 51
-6 6 -22 35 -36 65 -14 30 -30 60 -37 66 -6 7 -21 43 -34 80 -12 38 -26 71
-31 74 -4 3 -21 55 -36 115 -15 60 -30 111 -33 114 -7 6 -35 161 -45 255 -4
33 -10 62 -15 65 -21 14 -59 759 -59 1168 0 122 -4 222 -8 222 -5 0 -12 269
-16 598 -9 817 -42 1971 -56 1982 -8 6 -30 509 -30 684 0 149 18 359 31 364 5
2 9 13 9 25 0 31 49 230 58 237 4 3 20 38 36 78 15 39 31 72 35 72 4 0 13 16
20 36 7 20 21 44 30 53 9 9 28 35 41 56 29 48 52 74 153 175 259 258 703 429
1221 470 151 12 456 4 596 -15z m4030 -120 c229 -38 492 -124 645 -210 91 -51
116 -65 157 -92 24 -15 50 -32 59 -38 100 -63 308 -258 369 -345 13 -19 32
-43 41 -53 9 -10 24 -36 34 -57 10 -22 21 -40 25 -40 3 0 20 -28 36 -62 16
-35 34 -68 39 -74 6 -6 22 -47 35 -90 13 -43 27 -81 31 -84 4 -3 15 -41 25
-85 14 -65 18 -140 22 -405 2 -179 7 -327 11 -330 8 -6 53 -4486 45 -4540 -16
-113 -37 -220 -43 -220 -5 0 -16 -29 -26 -66 -10 -36 -23 -70 -29 -77 -6 -7
-24 -40 -40 -74 -16 -35 -33 -63 -36 -63 -4 0 -15 -18 -25 -40 -10 -21 -25
-47 -34 -57 -9 -10 -28 -35 -44 -55 -55 -75 -241 -251 -308 -293 -9 -5 -35
-23 -58 -38 -167 -111 -376 -198 -586 -245 -280 -63 -632 -60 -930 7 -420 95
-763 299 -1020 605 -22 26 -51 59 -64 74 -12 15 -29 39 -37 55 -8 15 -18 27
-22 27 -4 0 -21 25 -37 55 -17 30 -33 55 -36 55 -3 0 -19 30 -35 68 -15 37
-33 72 -39 78 -6 6 -22 47 -35 90 -13 43 -28 81 -32 84 -3 3 -16 50 -27 105
-19 92 -21 153 -27 785 -4 377 -10 687 -14 690 -3 3 -15 727 -25 1610 -24
2110 -24 2034 -1 2150 10 52 22 97 25 100 4 3 18 41 31 84 13 43 29 84 35 90
6 6 24 41 39 79 16 37 33 67 37 67 5 0 20 23 34 50 14 28 29 50 33 50 4 0 16
14 26 31 10 16 30 43 44 58 15 16 50 53 77 82 60 65 190 179 203 179 5 0 17
10 28 21 10 12 28 25 39 30 11 5 38 20 60 34 74 47 259 133 351 164 115 38
241 68 364 86 125 19 477 13 610 -10z m8020 -51 c331 -39 560 -118 760 -265
69 -51 179 -160 220 -219 13 -19 32 -43 41 -54 10 -10 23 -31 29 -47 7 -16 16
-29 19 -29 4 0 21 -28 37 -62 16 -35 32 -64 36 -66 3 -2 19 -38 34 -80 15 -42
31 -79 35 -82 4 -3 20 -57 35 -120 16 -63 32 -117 36 -120 11 -9 48 -276 55
-402 3 -65 10 -118 15 -118 4 0 8 -81 8 -180 0 -99 -4 -180 -8 -180 -5 0 -12
-57 -16 -127 -3 -71 -9 -138 -12 -150 l-6 -23 -704 0 -704 0 0 34 c0 19 4 36
9 38 14 5 31 243 31 427 0 162 -14 320 -29 331 -4 3 -16 34 -26 69 -22 73 -78
144 -134 167 -73 31 -182 8 -244 -51 -15 -14 -37 -45 -48 -68 -12 -23 -25 -44
-30 -47 -13 -9 -49 -151 -56 -222 -3 -38 -10 -68 -14 -68 -5 0 -9 -72 -9 -160
0 -88 4 -160 9 -160 4 0 11 -34 14 -76 8 -86 45 -276 56 -284 4 -3 20 -41 35
-85 16 -44 32 -82 36 -85 4 -3 19 -29 34 -57 14 -29 30 -53 35 -53 6 0 12 -8
16 -19 3 -10 18 -32 33 -47 15 -16 36 -41 47 -55 24 -31 184 -171 239 -208 22
-14 49 -33 61 -41 13 -8 64 -43 115 -77 50 -35 93 -63 95 -63 2 0 33 -20 69
-45 37 -25 68 -45 71 -45 6 0 110 -71 210 -144 101 -73 331 -271 395 -340 30
-32 66 -71 80 -86 14 -15 43 -48 65 -74 22 -26 50 -59 63 -74 13 -14 33 -43
44 -64 12 -21 25 -38 29 -38 4 0 20 -21 35 -47 15 -27 30 -50 34 -53 4 -3 20
-27 35 -55 16 -27 32 -52 36 -55 3 -3 19 -30 34 -60 15 -30 30 -57 34 -60 3
-3 17 -30 31 -60 14 -30 28 -57 31 -60 4 -3 20 -36 35 -75 15 -38 31 -72 34
-75 4 -3 20 -45 36 -95 16 -49 32 -92 36 -95 8 -6 58 -206 58 -232 0 -10 4
-18 9 -18 12 0 39 -186 53 -366 9 -118 9 -194 0 -312 -12 -171 -39 -345 -53
-350 -5 -2 -9 -10 -9 -17 0 -21 -50 -189 -58 -195 -4 -3 -21 -39 -36 -80 -16
-41 -32 -77 -36 -80 -4 -3 -20 -30 -35 -60 -15 -30 -31 -57 -35 -60 -4 -3 -14
-19 -23 -37 -9 -17 -23 -37 -30 -45 -7 -7 -26 -34 -41 -60 -15 -27 -31 -48
-34 -48 -4 0 -20 -20 -35 -45 -16 -25 -32 -45 -36 -45 -4 0 -14 -12 -23 -27
-16 -27 -30 -43 -137 -158 -42 -46 -285 -257 -322 -280 -9 -5 -41 -26 -71 -45
-30 -19 -63 -41 -74 -47 -69 -45 -278 -137 -377 -167 -161 -49 -265 -66 -442
-73 -264 -10 -486 28 -755 130 -78 30 -275 129 -299 151 -10 9 -22 16 -28 16
-5 0 -18 9 -28 20 -10 11 -23 20 -30 20 -6 0 -22 11 -35 25 -13 14 -27 25 -32
25 -26 0 -291 254 -326 313 -9 15 -19 27 -23 27 -4 0 -17 16 -29 35 -12 20
-27 41 -34 48 -6 6 -23 30 -36 52 -13 22 -27 42 -31 45 -3 3 -19 30 -34 60
-15 30 -31 57 -34 60 -4 3 -19 33 -34 68 l-27 63 0 805 0 804 373 0 c204 0
538 -3 741 -7 l369 -6 -6 -679 c-4 -516 -3 -681 6 -690 7 -7 21 -30 32 -52 25
-48 77 -100 135 -134 38 -23 57 -27 120 -27 57 0 84 5 110 20 55 31 163 124
190 164 14 20 30 39 36 43 6 4 22 36 35 70 12 35 26 65 30 68 16 11 32 142 33
260 0 118 -19 299 -33 310 -4 3 -19 54 -34 115 -15 60 -31 112 -36 115 -4 3
-20 42 -36 88 -16 45 -31 82 -35 82 -4 0 -19 32 -34 70 -15 39 -31 70 -35 70
-4 0 -18 23 -31 50 -13 27 -26 50 -30 50 -4 0 -15 18 -25 40 -10 21 -25 47
-34 57 -10 10 -30 40 -45 66 -15 26 -31 47 -35 47 -4 0 -14 13 -24 29 -49 83
-259 288 -382 371 -62 43 -110 73 -141 91 -19 10 -50 28 -69 39 -19 11 -51 29
-70 40 -19 11 -52 30 -72 41 -21 12 -51 30 -68 40 -16 11 -37 22 -45 26 -21 9
-91 58 -180 124 -99 74 -293 267 -350 349 -13 19 -29 40 -36 45 -6 6 -22 26
-35 45 -13 19 -29 41 -36 49 -8 7 -23 31 -34 53 -12 23 -29 50 -40 61 -11 12
-24 36 -31 54 -7 18 -15 33 -19 33 -4 0 -20 29 -35 65 -16 36 -31 65 -35 65
-4 0 -20 36 -35 80 -16 44 -32 80 -35 80 -4 0 -19 46 -35 103 -15 56 -31 104
-35 107 -9 6 -59 260 -59 299 0 16 -4 31 -9 33 -14 5 -31 239 -31 427 0 188
17 434 31 439 5 2 9 16 9 32 0 42 51 334 59 340 4 3 20 57 35 120 15 63 31
117 35 120 3 3 20 47 36 98 16 50 32 92 35 92 4 0 19 32 34 70 15 39 31 70 35
70 4 0 18 23 31 50 13 28 27 50 30 50 4 0 19 18 34 40 52 79 198 206 309 269
20 12 53 30 72 41 133 75 382 154 585 185 241 36 528 40 790 9z m15425 16
c377 -31 704 -134 973 -308 141 -90 341 -280 388 -368 10 -19 22 -34 26 -34 4
0 19 -23 34 -52 14 -28 32 -57 39 -65 7 -7 21 -33 30 -58 10 -25 21 -45 25
-45 4 0 20 -39 36 -87 15 -49 31 -90 35 -93 16 -12 43 -181 42 -265 -4 -390
-39 -1675 -45 -1675 -4 0 -8 -88 -8 -195 l0 -195 -690 0 -690 0 0 93 c-1 322
25 1787 32 1787 4 0 8 7 8 15 0 8 -4 15 -10 15 -5 0 -10 8 -10 17 0 36 -42
101 -84 131 -91 66 -246 79 -369 31 -65 -25 -159 -106 -178 -154 -9 -22 -15
-354 -22 -1307 -6 -703 -14 -1278 -19 -1278 -4 0 -8 -233 -9 -517 0 -285 -4
-768 -8 -1073 -7 -516 -4 -613 18 -630 3 -3 17 -22 31 -43 33 -50 131 -114
188 -123 60 -9 132 2 164 26 15 11 31 20 35 20 8 0 85 80 121 126 57 73 57 61
60 897 l3 767 784 0 785 0 0 -57 c-1 -135 -42 -1492 -47 -1530 -3 -24 -9 -43
-14 -43 -5 0 -9 -10 -9 -22 0 -31 -49 -231 -58 -238 -4 -3 -18 -38 -32 -79
-13 -40 -29 -79 -35 -85 -6 -6 -19 -31 -30 -55 -11 -24 -24 -49 -30 -55 -5 -6
-23 -36 -39 -66 -16 -30 -32 -57 -36 -60 -4 -3 -19 -23 -33 -45 -75 -111 -287
-323 -401 -400 -113 -77 -216 -133 -338 -186 -287 -125 -558 -176 -888 -166
-201 6 -302 21 -462 68 -93 28 -258 91 -283 110 -9 6 -45 27 -110 63 -47 26
-101 64 -114 80 -7 9 -19 16 -26 16 -17 0 -208 190 -241 239 -15 23 -30 41
-34 41 -4 0 -19 22 -34 50 -15 27 -31 50 -35 50 -5 0 -21 28 -36 62 -16 35
-33 68 -39 74 -6 6 -22 44 -35 85 -14 41 -28 77 -33 80 -10 6 -47 173 -48 211
0 14 -6 28 -12 31 -10 3 -12 328 -9 1593 2 874 7 1591 12 1594 4 3 10 464 11
1025 3 937 5 1027 22 1105 10 47 21 87 25 90 4 3 18 41 31 84 13 43 29 84 35
90 6 6 23 40 39 76 15 36 31 67 35 70 4 3 20 26 35 53 15 26 32 47 36 47 5 0
11 8 14 18 5 16 23 37 101 124 17 18 55 54 85 80 30 26 74 63 96 83 23 19 44
35 47 35 3 0 32 17 64 38 147 97 366 183 574 226 199 42 365 52 564 36z m9424
0 c295 -23 592 -104 830 -227 47 -25 93 -51 102 -59 8 -8 19 -14 23 -14 4 0
41 -24 83 -52 42 -29 90 -63 107 -74 35 -25 162 -148 219 -215 21 -24 46 -53
56 -64 10 -11 26 -33 36 -50 10 -16 24 -35 30 -40 7 -6 25 -35 40 -65 15 -30
31 -57 35 -60 4 -3 20 -39 36 -80 15 -41 32 -78 36 -81 10 -7 58 -214 58 -251
0 -14 4 -28 10 -30 11 -4 65 -4877 56 -5053 -6 -119 -39 -298 -56 -303 -5 -2
-10 -10 -10 -18 0 -19 -51 -146 -64 -160 -6 -6 -22 -34 -35 -62 -14 -29 -28
-52 -32 -52 -4 0 -19 -20 -33 -45 -15 -25 -30 -45 -34 -45 -4 0 -15 -12 -24
-27 -52 -88 -283 -282 -433 -365 -318 -177 -629 -248 -1024 -235 -389 12 -764
122 -1035 303 -32 21 -67 44 -78 51 -37 21 -203 166 -253 222 -27 30 -63 68
-78 85 -16 17 -36 43 -45 58 -9 16 -20 28 -24 28 -4 0 -19 20 -34 45 -14 25
-29 45 -33 45 -4 0 -20 27 -36 60 -16 33 -32 60 -35 60 -4 0 -20 33 -36 73
-15 39 -32 75 -36 78 -10 6 -58 166 -58 191 0 10 -4 18 -9 18 -24 0 -31 198
-42 1270 -7 619 -15 1127 -19 1130 -5 4 -32 1980 -34 2545 -1 140 19 305 35
305 5 0 9 9 9 19 0 23 40 154 49 161 4 3 20 37 36 75 16 39 32 72 35 75 4 3
20 28 35 55 16 28 34 55 40 60 6 6 20 24 30 40 26 42 54 73 179 197 60 59 114
108 120 108 7 0 25 14 41 30 16 17 32 30 36 30 5 0 29 14 54 31 97 66 281 152
415 195 156 50 389 87 575 93 28 0 110 -4 184 -9z m3446 -67 c10 -43 21 -80
25 -83 4 -3 20 -59 35 -125 15 -66 31 -122 34 -125 4 -3 18 -52 31 -110 13
-58 27 -107 31 -110 3 -3 19 -59 34 -125 16 -66 32 -122 35 -125 4 -3 20 -59
35 -125 15 -66 31 -122 34 -125 4 -3 20 -61 36 -130 15 -69 32 -127 35 -130 4
-3 20 -59 35 -125 15 -66 31 -122 35 -125 4 -3 17 -50 30 -105 12 -55 25 -102
29 -105 4 -3 20 -61 36 -130 16 -69 32 -127 36 -130 4 -3 19 -59 34 -125 15
-66 31 -122 35 -125 3 -3 19 -59 35 -125 15 -66 31 -122 34 -125 4 -3 20 -61
36 -130 15 -69 31 -127 35 -130 4 -3 20 -59 35 -125 15 -66 30 -122 34 -125 4
-3 17 -49 30 -102 12 -54 27 -98 32 -98 5 0 9 38 9 85 0 47 -4 85 -8 85 -4 0
-19 370 -32 823 -13 452 -26 824 -30 827 -3 3 -14 282 -24 620 -9 338 -20 675
-23 748 l-6 132 746 0 747 0 0 -3870 0 -3870 -679 0 -679 0 -7 37 c-4 21 -10
40 -14 43 -3 3 -17 50 -30 105 -13 55 -27 102 -31 105 -3 3 -19 59 -35 125
-15 66 -31 122 -35 125 -4 3 -20 59 -35 125 -15 66 -31 122 -35 125 -4 3 -20
59 -35 125 -15 66 -31 122 -35 125 -4 3 -20 59 -35 125 -15 66 -31 122 -35
125 -4 3 -20 59 -35 125 -15 66 -31 122 -35 125 -4 3 -18 50 -30 105 -13 55
-26 102 -30 105 -4 3 -20 59 -36 125 -16 66 -31 122 -35 125 -3 3 -19 59 -35
125 -16 66 -31 122 -35 125 -3 3 -19 57 -34 120 -15 63 -31 117 -34 120 -4 3
-19 59 -35 125 -16 66 -32 122 -35 125 -4 3 -18 51 -31 108 -13 56 -27 102
-30 102 -4 0 -15 38 -25 85 -10 47 -20 84 -22 81 -7 -7 40 -1470 47 -1476 4
-3 17 -355 30 -783 13 -427 28 -777 32 -777 4 0 8 -18 8 -40 l0 -40 -669 0
-668 0 -6 182 c-4 101 -10 356 -13 568 -4 212 -10 387 -14 390 -3 3 -19 626
-35 1385 -16 759 -31 1382 -35 1385 -4 3 -17 523 -30 1155 -13 633 -27 1152
-30 1155 -4 3 -12 291 -19 640 -6 349 -14 690 -18 758 l-6 122 681 0 680 0 17
-77z m-33037 -43 c14 -58 28 -107 32 -110 4 -3 17 -50 30 -105 12 -55 26 -102
29 -105 4 -3 20 -61 36 -130 15 -69 32 -127 35 -130 4 -3 20 -59 35 -125 15
-66 31 -122 35 -125 4 -3 20 -61 35 -130 16 -69 32 -127 36 -130 3 -3 19 -59
34 -125 16 -66 32 -122 35 -125 4 -3 18 -50 30 -105 12 -55 26 -102 30 -105 4
-3 20 -61 35 -130 16 -69 32 -127 36 -130 3 -3 19 -59 34 -125 16 -66 32 -122
35 -125 4 -3 20 -59 35 -125 15 -66 30 -122 34 -125 4 -3 20 -61 36 -130 16
-69 32 -127 36 -130 4 -3 17 -50 29 -105 13 -55 26 -102 30 -105 4 -3 20 -59
35 -125 15 -66 31 -122 35 -125 4 -3 15 -41 25 -85 18 -85 33 -117 28 -62 -1
17 -12 392 -24 832 -13 440 -25 802 -29 805 -5 4 -51 1469 -50 1603 l0 47 745
0 745 0 0 -3870 0 -3870 -676 0 c-527 0 -678 3 -687 12 -7 7 -25 67 -41 133
-16 66 -32 122 -36 125 -3 3 -19 59 -35 125 -15 66 -31 122 -35 125 -4 3 -17
50 -30 105 -12 55 -26 102 -30 105 -4 3 -20 59 -35 125 -15 66 -31 122 -35
125 -4 3 -20 59 -35 125 -15 66 -31 122 -35 125 -4 3 -20 59 -35 125 -16 66
-32 122 -35 125 -4 3 -20 59 -35 125 -16 66 -32 122 -35 125 -4 3 -18 50 -31
105 -13 55 -26 102 -30 105 -3 3 -19 57 -34 120 -15 63 -31 117 -34 120 -4 3
-19 59 -35 125 -16 66 -32 122 -35 125 -4 3 -19 59 -35 125 -16 66 -32 122
-36 125 -3 3 -19 59 -35 125 -15 66 -31 122 -35 125 -4 3 -16 43 -26 89 -19
86 -44 120 -44 62 0 -17 4 -31 8 -31 4 0 19 -350 32 -777 13 -428 26 -780 30
-783 5 -4 52 -1373 50 -1468 l0 -22 -662 2 -663 3 -3 230 c-1 126 -6 232 -10
235 -5 3 -21 626 -37 1385 -16 759 -31 1382 -35 1385 -4 3 -19 626 -35 1385
-16 759 -32 1382 -35 1385 -4 3 -12 275 -19 605 -6 330 -14 718 -18 863 l-6
262 678 -2 679 -3 24 -105z m9952 -735 l0 -815 -457 0 -456 0 6 -842 c4 -464
12 -1803 19 -2975 6 -1173 16 -2133 20 -2133 4 0 8 -31 8 -70 l0 -70 -860 0
-860 0 0 274 c0 151 4 276 8 278 4 2 18 1020 31 2263 12 1243 25 2488 28 2768
l6 507 -496 0 -497 0 0 815 0 815 1750 0 1750 0 0 -815z m2930 805 c173 -19
299 -63 435 -153 80 -53 209 -187 242 -251 9 -17 19 -33 23 -36 4 -3 20 -30
35 -60 15 -30 31 -57 35 -60 4 -3 20 -43 36 -90 16 -47 31 -87 34 -90 9 -7 37
-124 46 -187 3 -29 10 -53 15 -53 5 0 9 -490 9 -1120 0 -740 -3 -1120 -10
-1120 -5 0 -10 -13 -10 -29 0 -33 -37 -158 -48 -163 -4 -2 -19 -22 -32 -44
-53 -88 -198 -185 -351 -235 -35 -11 -109 -28 -164 -37 l-100 -16 100 -17
c118 -20 173 -37 278 -90 69 -34 227 -152 227 -170 0 -3 11 -18 24 -32 13 -14
35 -45 48 -69 12 -24 28 -49 35 -56 7 -7 22 -45 35 -85 12 -39 26 -74 29 -77
31 -23 33 -124 36 -1743 l4 -1627 -717 0 -716 0 6 453 c21 1597 14 2629 -19
2781 -8 38 -18 72 -23 75 -4 3 -14 20 -21 38 -18 44 -97 107 -154 123 -58 16
-153 9 -223 -17 l-49 -19 -3 -1717 -2 -1717 -755 0 -755 0 0 3860 0 3860 1163
0 c703 0 1200 -4 1257 -10z m2970 -3102 c-1 -3465 -7 -3185 67 -3240 86 -66
235 -1 287 125 l21 52 3 3088 2 3087 810 0 810 0 0 -3200 0 -3199 -21 -58
c-12 -32 -25 -60 -29 -63 -3 -3 -19 -35 -35 -72 -15 -38 -31 -68 -35 -68 -4 0
-15 -20 -24 -45 -10 -25 -23 -48 -31 -52 -7 -5 -24 -32 -39 -60 -14 -29 -30
-53 -34 -53 -4 0 -20 -23 -35 -50 -16 -28 -31 -50 -35 -50 -4 0 -15 -12 -24
-27 -16 -27 -29 -41 -137 -158 -125 -135 -316 -274 -501 -365 -457 -226 -1007
-262 -1467 -96 -84 30 -244 109 -290 143 -17 12 -36 23 -41 23 -5 0 -17 9 -27
20 -10 11 -22 20 -28 20 -26 0 -290 254 -325 313 -9 15 -19 27 -23 27 -4 0
-19 21 -35 48 -15 26 -32 50 -39 54 -6 4 -22 30 -35 57 -13 28 -26 51 -30 51
-3 0 -20 28 -36 63 -16 34 -32 63 -35 65 -4 2 -17 31 -30 65 -12 34 -26 64
-30 67 -4 3 -19 43 -33 91 -22 73 -26 103 -26 216 0 72 -4 133 -9 135 -5 2
-10 1317 -13 3081 l-4 3077 768 0 768 0 0 -3112z m9820 2297 l0 -815 -455 0
-456 0 6 -612 c5 -488 35 -5192 35 -5420 l0 -58 -852 0 -853 0 4 557 c2 307 6
560 10 563 4 3 17 1047 29 2320 12 1273 23 2389 25 2480 l2 165 -497 3 -498 2
0 815 0 815 1750 0 1750 0 0 -815z m1780 768 c2 -217 -45 -3619 -50 -3623 -4
-3 -17 -866 -30 -1917 -13 -1052 -28 -1913 -32 -1913 -4 0 -8 -45 -8 -100 l0
-100 -719 0 -718 0 5 383 c2 210 8 384 12 387 3 3 17 691 30 1530 13 839 26
1527 30 1530 3 3 19 828 35 1835 16 1007 32 1832 37 1833 4 2 8 48 8 103 l0
99 700 0 700 0 0 -47z"/>
<path d="M7055 7693 c-87 -32 -165 -110 -165 -167 0 -9 -4 -16 -10 -16 -7 0
-10 -798 -10 -2375 0 -1306 4 -2375 8 -2375 5 0 14 -18 21 -39 24 -83 119
-142 239 -149 87 -5 145 13 209 67 80 66 73 -167 73 2493 0 1826 -3 2390 -12
2421 -35 115 -218 188 -353 140z"/>
<path d="M40130 7655 c-64 -18 -100 -39 -138 -79 -67 -71 -62 119 -62 -2453 0
-1688 3 -2346 11 -2379 13 -50 70 -113 134 -146 51 -26 150 -35 212 -18 58 16
127 61 150 98 10 15 22 30 28 34 14 10 14 4806 0 4816 -6 4 -23 24 -38 45 -15
20 -32 37 -38 37 -5 0 -22 9 -37 19 -25 18 -123 42 -161 40 -9 0 -36 -7 -61
-14z"/>
<path d="M22740 7547 c-19 -8 -47 -19 -62 -25 l-28 -12 0 -815 0 -815 26 -6
c14 -4 71 -5 127 -2 91 4 110 8 171 39 55 27 73 42 90 74 12 22 24 42 29 46
22 17 31 156 31 524 0 478 -11 781 -29 798 -7 7 -20 28 -30 46 -21 42 -88 106
-139 133 -50 26 -139 33 -186 15z"/>
</g>
</svg>
